<?xml version="1.0" encoding="utf-8"?>
<!-- Generator: Adobe Illustrator 16.0.0, SVG Export Plug-In . SVG Version: 6.00 Build 0)  -->
<!DOCTYPE svg PUBLIC "-//W3C//DTD SVG 1.1//EN" "http://www.w3.org/Graphics/SVG/1.1/DTD/svg11.dtd">
<svg version="1.1" id="Layer_1" xmlns="http://www.w3.org/2000/svg" xmlns:xlink="http://www.w3.org/1999/xlink" x="0px" y="0px"
	 width="190px" height="190px" viewBox="0 0 190 190" enable-background="new 0 0 190 190" xml:space="preserve">
<g>
	<g>
		<path fill="#6D6E71" d="M152.226,53.365l-13.725-10.411l-1.148-16.931l-17.276-0.901l-9.314-14.573L95,18.361l-15.762-7.813
			l-9.314,14.573l-17.276,0.901l-1.148,16.931L37.774,53.365l6.934,14.421L37.774,83.86l13.972,9.615l1.052,16.376l17.127,1.464
			l9.389,14.228L95,118.346l15.687,7.197l9.389-14.228l17.127-1.464l1.052-16.376l13.972-9.615l-6.934-16.074L152.226,53.365z
			 M95,101.026c-18.326,0-33.182-14.855-33.182-33.182S76.674,34.663,95,34.663s33.182,14.855,33.182,33.182
			S113.326,101.026,95,101.026z"/>
		<polygon fill="#6D6E71" points="69.89,119.311 50.297,156.2 74.941,180.385 94.234,124.288 78.031,131.893 		"/>
		<polygon fill="#6D6E71" points="111.969,131.893 95.766,124.288 115.059,180.385 139.703,156.2 120.11,119.311 		"/>
	</g>
</g>
</svg>
