<?xml version="1.0" encoding="utf-8"?>
<!-- Generator: Adobe Illustrator 16.0.0, SVG Export Plug-In . SVG Version: 6.00 Build 0)  -->
<!DOCTYPE svg PUBLIC "-//W3C//DTD SVG 1.1//EN" "http://www.w3.org/Graphics/SVG/1.1/DTD/svg11.dtd">
<svg version="1.1" id="Layer_1" xmlns="http://www.w3.org/2000/svg" xmlns:xlink="http://www.w3.org/1999/xlink" x="0px" y="0px"
	 width="36px" height="36px" viewBox="6 6 36 36" enable-background="new 6 6 36 36" xml:space="preserve">
<path d="M6,10v28c0,2.2,1.78,4,4,4h28c2.2,0,4-1.8,4-4V10c0-2.2-1.8-4-4-4H10C7.78,6,6,7.8,6,10z"/>
<g>
	<path d="M30,18c0,3.32-2.68,6-6,6c-3.32,0-6-2.68-6-6s2.68-6,6-6C27.32,12,30,14.68,30,18z"/>
	<path d="M12,34c0-4,8-6.2,12-6.2S36,30,36,34v2H12V34z"/>
</g>
<path fill="#FFFFFF" d="M38.302,20.931c-0.053-0.128-0.113-0.256-0.177-0.383c-0.011,0.854-0.158,1.781-0.445,2.792
	c-1.114,3.9-5.332,7.348-10.236,9.612c5.17-3.092,9.544-7.756,9.846-12.34c0.19-2.896-0.535-5-2.224-6.43
	c-1.168-0.989-2.843-1.688-4.985-2.083c-2.39-0.438-5.44-0.512-9.062-0.216l-0.122,0.011c-7.349,0.64-11.646,4.621-11.495,10.649
	c0.015,0.594,0.135,1.28,0.346,2.024c0.043,2.175,0.461,4.472,1.359,6.387c0.877,1.871,2.126,3.12,3.61,3.609
	c0.387,0.129,0.798,0.209,1.222,0.238c0.134,0.01,0.269,0.018,0.405,0.025c-0.853-0.447-1.685-1.118-2.467-2
	c-1.569-1.769-2.738-4.103-3.438-6.356c1.135,2.609,3.118,5.485,5.536,7.367c1.729,1.348,3.472,1.986,5.041,1.849
	c0.41-0.034,0.814-0.123,1.207-0.262c1.083-0.382,2.179-0.852,3.257-1.395c4.948-1.115,9.47-3.32,11.568-6.517
	C38.688,25.014,39.099,22.86,38.302,20.931z M21.079,30.233c-2.266,0-4.508-1.208-4.508-3.482c0-0.914,0.513-2.081,0.685-2.081
	c0.106,0,0.64,2.938,3.674,2.938c0.875,0,1.901-0.408,1.901-1.4c0-2.004-5.768-1.478-5.768-5.349c0-2.373,2.093-3.657,4.401-3.657
	c2.67,0,4.145,1.459,4.145,1.848c0,0.37-1.195,1.946-1.688,1.946c-0.555,0-0.683-1.498-2.649-1.498c-0.662,0-1.56,0.272-1.56,0.856
	c0,2.003,6.239,1.964,6.239,5.912C25.95,28.793,23.644,30.233,21.079,30.233z"/>
</svg>
