<?xml version="1.0" encoding="utf-8"?>
<!-- Generator: Adobe Illustrator 16.0.0, SVG Export Plug-In . SVG Version: 6.00 Build 0)  -->
<!DOCTYPE svg PUBLIC "-//W3C//DTD SVG 1.1//EN" "http://www.w3.org/Graphics/SVG/1.1/DTD/svg11.dtd">
<svg version="1.1"
	 id="svg2" sodipodi:docname="Blogger.svg" inkscape:version="0.91 r13725" xmlns:cc="http://creativecommons.org/ns#" xmlns:dc="http://purl.org/dc/elements/1.1/" xmlns:sodipodi="http://sodipodi.sourceforge.net/DTD/sodipodi-0.dtd" xmlns:svg="http://www.w3.org/2000/svg" xmlns:rdf="http://www.w3.org/1999/02/22-rdf-syntax-ns#" xmlns:inkscape="http://www.inkscape.org/namespaces/inkscape"
	 xmlns="http://www.w3.org/2000/svg" xmlns:xlink="http://www.w3.org/1999/xlink" x="0px" y="0px" width="300px" height="300px"
	 viewBox="-78.192 -78.318 300 300" enable-background="new -78.192 -78.318 300 300" xml:space="preserve">
<path fill="#13BA8F" d="M121.173,191.572l28.999,4.489c4.85,0.739,9.797-0.392,13.765-3.181c3.922-2.709,6.657-6.906,7.379-11.563
	l4.354-27.691c0.879-5.57,4.508-10.303,9.768-12.846l26.218-12.525c4.435-2.141,7.762-5.818,9.257-10.276
	c1.547-4.512,1.056-9.349-1.161-13.539l-13.51-24.979c-2.654-4.88-2.654-10.826,0-15.755l13.51-24.957
	c2.217-4.187,2.68-9.024,1.161-13.533c-1.522-4.489-4.85-8.137-9.257-10.283L185.437,2.406c-5.26-2.541-8.889-7.27-9.768-12.844
	l-4.354-27.69c-0.722-4.661-3.457-8.827-7.379-11.538c-3.968-2.813-8.915-3.946-13.765-3.182l-28.999,4.633
	c-5.747,0.913-11.575-0.911-15.699-4.879L84.881-73.117c-3.485-3.329-8.146-5.201-13.099-5.201c-4.873,0-9.641,1.897-13.095,5.201
	L38.089-53.093c-4.092,3.993-9.949,5.792-15.698,4.879l-28.952-4.56c-4.843-0.764-9.79,0.37-13.787,3.183
	c-3.944,2.709-6.653,6.878-7.377,11.536l-4.327,27.692c-0.901,5.572-4.512,10.308-9.769,12.845l-26.246,12.523
	c-4.356,2.147-7.729,5.796-9.223,10.285c-1.524,4.512-1.089,9.342,1.133,13.537l13.504,24.95c2.683,4.908,2.683,10.852,0,15.76
	l-13.504,24.975c-2.222,4.19-2.657,9.019-1.133,13.535c1.516,4.461,4.84,8.141,9.223,10.28l26.246,12.529
	c5.257,2.538,8.868,7.271,9.769,12.847l4.327,27.688c0.724,4.637,3.433,8.825,7.377,11.564c3.965,2.79,8.917,3.923,13.787,3.184
	l28.952-4.567c5.749-0.96,11.606,0.89,15.698,4.864l20.599,19.967c3.481,3.403,8.198,5.278,13.095,5.278
	c4.921,0,9.641-1.875,13.099-5.278l20.593-19.967C109.598,192.462,115.453,190.612,121.173,191.572z"/>
<g>
	<path fill="#FFFFFF" d="M119.289,16.5l-8.402,15.11c-11.471-6.335-26.31-10.479-40.024-10.479c-16.515,0-29.112,5.118-29.112,17.06
		c0,28.515,82.292,13.891,82.292,59.953c0,25.349-25.75,36.558-54.021,36.558c-20.994,0-42.548-6.333-56.543-18.033l8.397-14.377
		c12.595,10.236,31.63,16.329,48.986,16.329c17.353,0,31.347-5.606,31.631-18.281c0.839-30.951-81.738-15.114-81.459-60.686
		c0-24.616,24.355-34.849,51.224-34.849C89.897,4.804,106.97,9.189,119.289,16.5z"/>
</g>
</svg>
