<?xml version="1.0" encoding="utf-8"?>
<!-- Generator: Adobe Illustrator 16.0.0, SVG Export Plug-In . SVG Version: 6.00 Build 0)  -->
<!DOCTYPE svg PUBLIC "-//W3C//DTD SVG 1.1//EN" "http://www.w3.org/Graphics/SVG/1.1/DTD/svg11.dtd">
<svg version="1.1" id="Layer_1" xmlns="http://www.w3.org/2000/svg" xmlns:xlink="http://www.w3.org/1999/xlink" x="0px" y="0px"
	 width="60px" height="60px" viewBox="0 0 60 60" enable-background="new 0 0 60 60" xml:space="preserve">
<g>
	<radialGradient id="SVGID_1_" cx="35.0977" cy="6.3037" r="129.591" gradientUnits="userSpaceOnUse">
		<stop  offset="0" style="stop-color:#0069C0"/>
		<stop  offset="0.1927" style="stop-color:#005AA4"/>
		<stop  offset="0.6058" style="stop-color:#00355D"/>
		<stop  offset="1" style="stop-color:#000F14"/>
	</radialGradient>
	<path fill="url(#SVGID_1_)" d="M53.334,0H6.667C2.966,0,0,3,0,6.667v46.666C0,57.002,2.966,60,6.667,60h46.667
		C57.002,60,60,57.002,60,53.334V6.667C60,3,57.002,0,53.334,0z M49.885,36.172c-0.201,0.596-0.646,1.084-1.236,1.373l-3.496,1.668
		c-0.699,0.338-1.184,0.971-1.301,1.713l-0.58,3.693c-0.098,0.621-0.463,1.18-0.984,1.537c-0.527,0.375-1.188,0.523-1.838,0.426
		l-3.864-0.596c-0.763-0.129-1.542,0.117-2.094,0.645l-2.748,2.664C31.284,49.75,30.654,50,30,50c-0.651,0-1.281-0.25-1.745-0.703
		l-2.746-2.664c-0.546-0.529-1.328-0.773-2.094-0.646l-3.86,0.605c-0.65,0.1-1.309-0.051-1.839-0.422
		c-0.525-0.367-0.887-0.922-0.983-1.543l-0.577-3.689c-0.12-0.744-0.601-1.377-1.304-1.715l-3.499-1.67
		c-0.583-0.287-1.029-0.775-1.23-1.371c-0.204-0.602-0.145-1.246,0.151-1.805l1.801-3.328c0.357-0.656,0.357-1.448,0-2.102
		l-1.801-3.326c-0.296-0.561-0.355-1.204-0.151-1.807c0.2-0.598,0.65-1.084,1.23-1.37l3.499-1.67
		c0.703-0.338,1.184-0.97,1.304-1.714l0.577-3.692c0.096-0.623,0.458-1.176,0.983-1.538c0.534-0.375,1.194-0.526,1.839-0.425
		l3.86,0.609c0.767,0.121,1.548-0.119,2.094-0.651l2.746-2.67C28.714,10.254,29.35,10,30,10c0.659,0,1.284,0.251,1.746,0.694
		l2.746,2.669c0.551,0.529,1.326,0.773,2.095,0.651l3.865-0.619c0.647-0.103,1.309,0.05,1.836,0.426
		c0.522,0.361,0.888,0.916,0.985,1.537l0.579,3.693c0.117,0.744,0.601,1.374,1.302,1.713l3.496,1.67
		c0.588,0.286,1.032,0.772,1.235,1.37c0.202,0.601,0.139,1.246-0.156,1.805l-1.802,3.327c-0.352,0.657-0.352,1.45,0,2.101
		l1.802,3.33C50.024,34.928,50.088,35.57,49.885,36.172z"/>
	<radialGradient id="SVGID_2_" cx="35.0986" cy="6.3037" r="129.5941" gradientUnits="userSpaceOnUse">
		<stop  offset="0" style="stop-color:#0069C0"/>
		<stop  offset="0.1927" style="stop-color:#005AA4"/>
		<stop  offset="0.6058" style="stop-color:#00355D"/>
		<stop  offset="1" style="stop-color:#000F14"/>
	</radialGradient>
	<path fill="url(#SVGID_2_)" d="M24.452,23.731c0-2.275,2.4-3.25,5.546-3.25c2.613,0,5.437,0.79,7.624,1.997l1.599-2.878
		c-2.346-1.392-5.598-2.228-8.958-2.228c-5.119,0-9.758,1.95-9.758,6.638c-0.052,8.678,15.677,5.663,15.516,11.559
		c-0.054,2.414-2.72,3.48-6.024,3.48c-3.305,0-6.931-1.16-9.33-3.109l-1.601,2.74c2.667,2.229,6.771,3.436,10.771,3.436
		c5.384,0,10.29-2.137,10.29-6.965C40.127,26.378,24.452,29.164,24.452,23.731z"/>
</g>
</svg>
