<?xml version="1.0" encoding="utf-8"?>
<!-- Generator: Adobe Illustrator 16.0.0, SVG Export Plug-In . SVG Version: 6.00 Build 0)  -->
<!DOCTYPE svg PUBLIC "-//W3C//DTD SVG 1.1//EN" "http://www.w3.org/Graphics/SVG/1.1/DTD/svg11.dtd">
<svg version="1.1"
	 id="svg2" inkscape:version="0.91 r13725" sodipodi:docname="Blogger.svg" xmlns:inkscape="http://www.inkscape.org/namespaces/inkscape" xmlns:cc="http://creativecommons.org/ns#" xmlns:rdf="http://www.w3.org/1999/02/22-rdf-syntax-ns#" xmlns:svg="http://www.w3.org/2000/svg" xmlns:dc="http://purl.org/dc/elements/1.1/" xmlns:sodipodi="http://sodipodi.sourceforge.net/DTD/sodipodi-0.dtd"
	 xmlns="http://www.w3.org/2000/svg" xmlns:xlink="http://www.w3.org/1999/xlink" x="0px" y="0px" width="300px" height="300px"
	 viewBox="-78.192 -78.318 300 300" enable-background="new -78.192 -78.318 300 300" xml:space="preserve">
<path fill="#007FE7" d="M121.175,191.575l28.998,4.486c4.851,0.738,9.799-0.393,13.767-3.183c3.919-2.709,6.654-6.902,7.375-11.558
	l4.355-27.694c0.877-5.572,4.509-10.303,9.769-12.844l26.217-12.525c4.437-2.145,7.763-5.82,9.256-10.279
	c1.546-4.513,1.058-9.348-1.162-13.539L206.24,79.461c-2.652-4.881-2.652-10.825,0-15.754l13.509-24.957
	c2.22-4.188,2.685-9.022,1.162-13.533c-1.523-4.489-4.846-8.138-9.256-10.284L185.439,2.407c-5.26-2.54-8.892-7.272-9.769-12.845
	l-4.355-27.689c-0.721-4.661-3.456-8.828-7.375-11.54c-3.968-2.813-8.916-3.946-13.767-3.181l-28.998,4.633
	c-5.748,0.913-11.574-0.911-15.699-4.88L84.88-73.117c-3.482-3.329-8.146-5.202-13.098-5.202c-4.871,0-9.64,1.898-13.096,5.202
	L38.09-53.094c-4.094,3.993-9.951,5.792-15.7,4.88l-28.951-4.561c-4.843-0.763-9.791,0.372-13.788,3.183
	c-3.944,2.71-6.653,6.878-7.375,11.537l-4.328,27.691c-0.901,5.573-4.512,10.309-9.77,12.847l-26.245,12.523
	c-4.358,2.147-7.731,5.795-9.224,10.284c-1.525,4.511-1.089,9.343,1.133,13.537l13.505,24.951c2.682,4.907,2.682,10.849,0,15.757
	l-13.505,24.977c-2.222,4.193-2.658,9.021-1.133,13.534c1.515,4.465,4.841,8.14,9.224,10.283l26.245,12.526
	c5.257,2.538,8.868,7.273,9.77,12.848l4.328,27.689c0.722,4.638,3.431,8.824,7.375,11.563c3.966,2.79,8.918,3.923,13.788,3.183
	l28.951-4.563c5.75-0.961,11.606,0.887,15.7,4.86l20.597,19.969c3.483,3.4,8.2,5.277,13.096,5.277c4.921,0,9.642-1.877,13.098-5.277
	l20.596-19.969C109.601,192.462,115.451,190.614,121.175,191.575z"/>
<g>
	<path fill="#FFFFFF" d="M140.942-6.322l-11.997,21.587C112.549,6.211,91.356,0.293,71.762,0.293
		c-23.593,0-41.588,7.312-41.588,24.372c0,40.736,117.564,19.846,117.564,85.649c0,36.209-36.789,52.226-77.177,52.226
		c-29.991,0-60.782-9.053-80.776-25.764l11.997-20.542c17.995,14.622,45.187,23.326,69.98,23.326
		c24.792,0,44.786-8.007,45.187-26.112C118.148,69.229,0.182,91.859,0.582,26.753c0-35.164,34.791-49.787,73.178-49.787
		C98.953-23.034,123.346-16.767,140.942-6.322z"/>
</g>
</svg>
