<?xml version="1.0" encoding="utf-8"?>
<!-- Generator: Adobe Illustrator 16.0.0, SVG Export Plug-In . SVG Version: 6.00 Build 0)  -->
<!DOCTYPE svg PUBLIC "-//W3C//DTD SVG 1.1//EN" "http://www.w3.org/Graphics/SVG/1.1/DTD/svg11.dtd">
<svg version="1.1" id="Layer_1" xmlns="http://www.w3.org/2000/svg" xmlns:xlink="http://www.w3.org/1999/xlink" x="0px" y="0px"
	 width="48px" height="48px" viewBox="-6 -6 48 48" enable-background="new -6 -6 48 48" xml:space="preserve">
<g>
	<path fill="#FFFFFF" d="M36.667-6H-0.667C-3.627-6-6-3.6-6-0.667v37.333C-6,39.601-3.627,42-0.667,42h37.333
		C39.601,42,42,39.601,42,36.667V-0.667C42-3.6,39.601-6,36.667-6z M33.907,22.938c-0.16,0.476-0.516,0.867-0.988,1.098
		l-2.797,1.334c-0.56,0.271-0.947,0.777-1.041,1.371l-0.464,2.954c-0.078,0.496-0.37,0.944-0.788,1.23
		c-0.422,0.3-0.95,0.419-1.469,0.341l-3.092-0.478c-0.611-0.103-1.234,0.094-1.675,0.517l-2.198,2.131C19.027,33.8,18.524,34,18,34
		c-0.521,0-1.025-0.2-1.396-0.563l-2.197-2.131c-0.437-0.423-1.062-0.619-1.675-0.517l-3.088,0.485
		c-0.52,0.08-1.047-0.041-1.471-0.338c-0.42-0.293-0.71-0.738-0.787-1.234l-0.461-2.953c-0.096-0.594-0.481-1.101-1.043-1.371
		l-2.799-1.336c-0.467-0.229-0.823-0.62-0.984-1.097c-0.163-0.481-0.116-0.997,0.121-1.444l1.441-2.662
		c0.286-0.525,0.286-1.159,0-1.682l-1.441-2.661c-0.237-0.448-0.284-0.963-0.121-1.445c0.16-0.479,0.52-0.868,0.984-1.096
		l2.799-1.336c0.562-0.271,0.947-0.776,1.043-1.371l0.461-2.954c0.077-0.498,0.367-0.941,0.787-1.23
		c0.427-0.3,0.955-0.421,1.471-0.34l3.088,0.487c0.613,0.097,1.238-0.095,1.675-0.521l2.197-2.136C16.971,2.203,17.48,2,18,2
		c0.528,0,1.027,0.201,1.396,0.555l2.198,2.136c0.44,0.423,1.06,0.618,1.675,0.521l3.092-0.495c0.519-0.082,1.047,0.04,1.469,0.34
		c0.418,0.289,0.71,0.733,0.788,1.23l0.464,2.954c0.094,0.595,0.481,1.099,1.041,1.371l2.797,1.336
		c0.471,0.229,0.826,0.618,0.988,1.096c0.162,0.481,0.112,0.997-0.125,1.444l-1.441,2.661c-0.282,0.526-0.282,1.16,0,1.68
		l1.441,2.664C34.02,21.942,34.071,22.456,33.907,22.938z"/>
	<path fill="#FFFFFF" d="M13.561,12.985c0-1.82,1.92-2.6,4.437-2.6c2.091,0,4.35,0.631,6.099,1.597l1.279-2.303
		C23.5,8.566,20.898,7.897,18.21,7.897c-4.095,0-7.806,1.56-7.806,5.31c-0.042,6.944,12.541,4.531,12.412,9.247
		c-0.042,1.932-2.175,2.785-4.819,2.785s-5.545-0.928-7.464-2.488l-1.28,2.193c2.133,1.782,5.417,2.747,8.616,2.747
		c4.308,0,8.232-1.708,8.232-5.571C26.102,15.102,13.561,17.331,13.561,12.985z"/>
</g>
</svg>
