<?xml version="1.0" encoding="utf-8"?>
<!-- Generator: Adobe Illustrator 16.0.0, SVG Export Plug-In . SVG Version: 6.00 Build 0)  -->
<!DOCTYPE svg PUBLIC "-//W3C//DTD SVG 1.1//EN" "http://www.w3.org/Graphics/SVG/1.1/DTD/svg11.dtd">
<svg version="1.1" id="Layer_1" xmlns="http://www.w3.org/2000/svg" xmlns:xlink="http://www.w3.org/1999/xlink" x="0px" y="0px"
	 width="36px" height="36px" viewBox="0 0 36 36" enable-background="new 0 0 36 36" xml:space="preserve">
<g>
	<path fill="#FFFFFF" d="M32,0H4C1.78,0,0,1.8,0,4v28c0,2.2,1.78,4,4,4h28c2.2,0,4-1.8,4-4V4C36,1.8,34.2,0,32,0z M29.931,21.704
		c-0.12,0.356-0.387,0.65-0.741,0.823l-2.098,1c-0.42,0.204-0.711,0.583-0.781,1.028l-0.348,2.216
		c-0.059,0.372-0.277,0.708-0.591,0.923c-0.316,0.225-0.713,0.314-1.102,0.256l-2.319-0.358c-0.458-0.077-0.926,0.07-1.256,0.388
		l-1.648,1.598C18.771,29.85,18.394,30,18,30c-0.391,0-0.769-0.15-1.047-0.423l-1.648-1.598c-0.327-0.317-0.796-0.465-1.256-0.388
		l-2.316,0.364c-0.39,0.06-0.786-0.031-1.103-0.254c-0.315-0.22-0.533-0.554-0.59-0.926l-0.346-2.215
		c-0.072-0.445-0.361-0.825-0.782-1.028l-2.099-1.002c-0.351-0.171-0.617-0.465-0.738-0.822c-0.122-0.361-0.087-0.748,0.091-1.083
		l1.081-1.997c0.214-0.394,0.214-0.869,0-1.261l-1.081-1.996c-0.178-0.336-0.213-0.723-0.091-1.083
		c0.12-0.359,0.39-0.651,0.738-0.822l2.099-1.002c0.421-0.203,0.71-0.582,0.782-1.028l0.346-2.215
		c0.058-0.373,0.275-0.706,0.59-0.923c0.32-0.225,0.716-0.316,1.103-0.255l2.316,0.365c0.46,0.073,0.929-0.071,1.256-0.391
		l1.648-1.602C17.229,6.152,17.61,6,18,6c0.396,0,0.77,0.15,1.047,0.416l1.648,1.602c0.33,0.317,0.795,0.463,1.256,0.391
		l2.319-0.371c0.389-0.061,0.785,0.03,1.102,0.255c0.313,0.217,0.532,0.55,0.591,0.923l0.348,2.215
		c0.07,0.446,0.361,0.824,0.781,1.028l2.098,1.002c0.353,0.171,0.619,0.463,0.741,0.822c0.121,0.361,0.084,0.748-0.094,1.083
		l-1.081,1.996c-0.212,0.395-0.212,0.87,0,1.26l1.081,1.998C30.015,20.957,30.054,21.342,29.931,21.704z"/>
	<path fill="#FFFFFF" d="M14.671,14.239c0-1.365,1.44-1.95,3.327-1.95c1.568,0,3.263,0.473,4.574,1.198l0.96-1.727
		c-1.407-0.835-3.358-1.337-5.375-1.337c-3.071,0-5.854,1.17-5.854,3.982c-0.032,5.208,9.405,3.398,9.309,6.936
		c-0.031,1.448-1.631,2.089-3.614,2.089c-1.983,0-4.159-0.696-5.598-1.866l-0.96,1.645c1.6,1.337,4.063,2.061,6.462,2.061
		c3.231,0,6.174-1.281,6.174-4.179C24.076,15.826,14.671,17.498,14.671,14.239z"/>
</g>
</svg>
