<?xml version="1.0" encoding="utf-8"?>
<!-- Generator: Adobe Illustrator 16.0.0, SVG Export Plug-In . SVG Version: 6.00 Build 0)  -->
<!DOCTYPE svg PUBLIC "-//W3C//DTD SVG 1.1//EN" "http://www.w3.org/Graphics/SVG/1.1/DTD/svg11.dtd">
<svg version="1.1" id="Layer_1" xmlns="http://www.w3.org/2000/svg" xmlns:xlink="http://www.w3.org/1999/xlink" x="0px" y="0px"
	 width="36px" height="36px" viewBox="0 0 36 36" enable-background="new 0 0 36 36" xml:space="preserve">
<path fill="#007FE7" d="M0,4v28c0,2.2,1.78,4,4,4h28c2.2,0,4-1.8,4-4V4c0-2.2-1.8-4-4-4H4C1.78,0,0,1.8,0,4z"/>
<path fill="#FFFFFF" d="M21.951,27.592l2.319,0.358c0.389,0.059,0.785-0.031,1.102-0.256c0.313-0.215,0.532-0.551,0.591-0.923
	l0.348-2.216c0.07-0.445,0.361-0.824,0.781-1.028l2.098-1c0.354-0.173,0.621-0.467,0.741-0.823c0.123-0.362,0.084-0.747-0.094-1.084
	l-1.081-1.998c-0.212-0.39-0.212-0.866,0-1.26l1.081-1.996c0.178-0.335,0.215-0.722,0.094-1.083
	c-0.122-0.359-0.389-0.651-0.741-0.822l-2.098-1.002c-0.42-0.204-0.711-0.582-0.781-1.028l-0.348-2.215
	c-0.059-0.373-0.277-0.706-0.591-0.923c-0.316-0.225-0.713-0.316-1.102-0.255l-2.319,0.371c-0.461,0.073-0.926-0.073-1.256-0.391
	l-1.648-1.602C18.77,6.15,18.396,6,18,6c-0.39,0-0.771,0.152-1.047,0.416l-1.648,1.602c-0.327,0.319-0.796,0.463-1.256,0.391
	l-2.316-0.365c-0.387-0.061-0.783,0.03-1.103,0.255c-0.315,0.217-0.533,0.55-0.59,0.923l-0.346,2.215
	c-0.072,0.446-0.361,0.825-0.782,1.028l-2.099,1.002c-0.349,0.171-0.619,0.463-0.738,0.822c-0.122,0.361-0.087,0.748,0.091,1.083
	l1.081,1.996c0.214,0.393,0.214,0.868,0,1.261l-1.081,1.997c-0.178,0.335-0.213,0.722-0.091,1.083
	c0.121,0.357,0.388,0.651,0.738,0.822l2.099,1.002c0.421,0.203,0.71,0.583,0.782,1.028l0.346,2.215
	c0.058,0.372,0.275,0.706,0.59,0.926c0.317,0.223,0.713,0.313,1.103,0.254l2.316-0.364c0.46-0.077,0.929,0.07,1.256,0.388
	l1.648,1.598C17.231,29.85,17.608,30,18,30c0.394,0,0.771-0.15,1.047-0.423l1.648-1.598C21.025,27.662,21.493,27.515,21.951,27.592z
	"/>
<g>
	<path fill="#007FE7" d="M23.532,11.76l-0.96,1.727c-1.312-0.725-3.006-1.198-4.574-1.198c-1.887,0-3.327,0.584-3.327,1.95
		c0,3.259,9.405,1.587,9.405,6.851c0,2.897-2.943,4.179-6.174,4.179c-2.399,0-4.862-0.724-6.462-2.061l0.96-1.645
		c1.439,1.17,3.615,1.866,5.598,1.866c1.983,0,3.583-0.641,3.614-2.089c0.097-3.537-9.34-1.728-9.309-6.936
		c0-2.813,2.783-3.982,5.854-3.982C20.174,10.423,22.125,10.924,23.532,11.76z"/>
</g>
</svg>
