<?xml version="1.0" encoding="utf-8"?>
<!-- Generator: Adobe Illustrator 16.0.0, SVG Export Plug-In . SVG Version: 6.00 Build 0)  -->
<!DOCTYPE svg PUBLIC "-//W3C//DTD SVG 1.1//EN" "http://www.w3.org/Graphics/SVG/1.1/DTD/svg11.dtd">
<svg version="1.1" id="Layer_1" xmlns="http://www.w3.org/2000/svg" xmlns:xlink="http://www.w3.org/1999/xlink" x="0px" y="0px"
	 width="400px" height="400px" viewBox="0 0 400 400" enable-background="new 0 0 400 400" xml:space="preserve">
<path fill="#B3B3B3" d="M393.603,50.027c0-20.883-16.932-37.809-37.815-37.809H43.871c-20.877,0-37.802,16.925-37.802,37.809v311.91
	c0,20.891,16.925,37.815,37.802,37.815h229.798l119.934-119.933V50.027z"/>
<path fill="#E0AF8D" d="M393.603,37.815c0-20.884-16.932-37.809-37.815-37.809H43.871c-20.877,0-37.802,16.925-37.802,37.809
	v311.916c0,20.877,16.925,37.803,37.802,37.803H277.52l116.083-116.076V37.815z"/>
<path fill="none" d="M393.603,353.252c0,20.89-16.932,37.815-37.815,37.815H43.871c-20.877,0-37.802-16.926-37.802-37.815V41.342
	c0-20.883,16.925-37.809,37.802-37.809h311.917c20.884,0,37.815,16.925,37.815,37.809V353.252z"/>
<path fill="#986B49" d="M393.603,41.342c0-20.883-16.932-37.809-37.815-37.809H43.871c-20.877,0-37.802,16.925-37.802,37.809v311.91
	c0,20.89,16.925,37.815,37.802,37.815h230.123l119.609-119.609V41.342z"/>
<path fill="#FDD198" d="M242.334,300.521l24.963,3.87c4.181,0.635,8.442-0.351,11.854-2.737c3.378-2.333,5.731-5.947,6.346-9.953
	l3.756-23.856c0.755-4.788,3.884-8.861,8.408-11.046l22.576-10.789c3.81-1.848,6.683-5.017,7.964-8.847
	c1.335-3.884,0.917-8.051-0.998-11.652l-11.632-21.514c-2.286-4.201-2.286-9.326,0-13.564l11.632-21.483
	c1.915-3.607,2.313-7.771,0.998-11.656c-1.315-3.864-4.168-7.006-7.964-8.85l-22.576-10.789c-4.524-2.185-7.653-6.257-8.408-11.055
	l-3.756-23.84c-0.614-4.016-2.968-7.603-6.346-9.936c-3.412-2.421-7.674-3.398-11.854-2.738l-24.963,3.989
	c-4.942,0.785-9.967-0.782-13.52-4.201l-17.729-17.239c-2.993-2.866-7.02-4.478-11.281-4.478c-4.188,0-8.301,1.632-11.274,4.478
	l-17.728,17.239c-3.526,3.436-8.57,4.986-13.52,4.201l-24.923-3.925c-4.174-0.657-8.436,0.32-11.875,2.738
	c-3.392,2.333-5.725,5.92-6.352,9.933l-3.722,23.84c-0.782,4.801-3.891,8.877-8.409,11.062l-22.596,10.786
	c-3.756,1.848-6.662,4.987-7.943,8.851c-1.315,3.884-0.938,8.044,0.978,11.659l11.625,21.48c2.313,4.221,2.313,9.339,0,13.567
	l-11.625,21.5c-1.915,3.615-2.292,7.769-0.978,11.652c1.308,3.844,4.161,7.013,7.943,8.848l22.596,10.788
	c4.518,2.186,7.626,6.258,8.409,11.06l3.722,23.844c0.627,3.991,2.96,7.593,6.352,9.952c3.418,2.4,7.674,3.386,11.875,2.738
	l24.923-3.925c4.949-0.822,9.993,0.755,13.52,4.194l17.728,17.182c3,2.926,7.06,4.545,11.274,4.545c4.242,0,8.3-1.619,11.281-4.545
	l17.729-17.182C232.367,301.275,237.404,299.698,242.334,300.521z"/>
<g>
	<path fill="#986B49" d="M240.709,149.792l-7.235,13.011c-9.879-5.458-22.65-9.025-34.458-9.025
		c-14.221,0-25.064,4.406-25.064,14.683c0,24.552,70.856,11.962,70.856,51.629c0,21.82-22.178,31.463-46.514,31.463
		c-18.078,0-36.635-5.448-48.685-15.522l7.235-12.381c10.843,8.82,27.229,14.066,42.171,14.066s26.993-4.828,27.236-15.752
		c0.715-26.645-70.378-13.001-70.136-52.239c0-21.193,20.971-30.007,44.1-30.007C215.402,139.717,230.108,143.493,240.709,149.792z"
		/>
</g>
<polygon fill="#CF9F7D" points="273.993,391.067 273.993,271.458 393.603,271.458 "/>
<polygon fill="#B3B3B3" points="273.993,271.458 273.993,391.067 154.383,391.067 "/>
</svg>
