<?xml version="1.0" encoding="utf-8"?>
<!-- Generator: Adobe Illustrator 16.0.0, SVG Export Plug-In . SVG Version: 6.00 Build 0)  -->
<!DOCTYPE svg PUBLIC "-//W3C//DTD SVG 1.1//EN" "http://www.w3.org/Graphics/SVG/1.1/DTD/svg11.dtd">
<svg version="1.1" id="Layer_1" xmlns="http://www.w3.org/2000/svg" xmlns:xlink="http://www.w3.org/1999/xlink" x="0px" y="0px"
	 width="400px" height="400px" viewBox="0 0 400 400" enable-background="new 0 0 400 400" xml:space="preserve">
<path fill="#B3B3B3" d="M394.065,50.03c0-20.883-16.938-37.809-37.813-37.809H44.333c-20.876,0-37.802,16.925-37.802,37.809v311.905
	c0,20.889,16.925,37.813,37.802,37.813h229.801l119.932-119.931V50.03z"/>
<path fill="#C26560" d="M394.065,37.818c0-20.883-16.938-37.808-37.813-37.808H44.333c-20.876,0-37.802,16.924-37.802,37.808
	v311.912c0,20.877,16.925,37.802,37.802,37.802h233.646l116.086-116.075V37.818z"/>
<path fill="none" d="M394.065,353.25c0,20.89-16.938,37.813-37.813,37.813H44.333c-20.876,0-37.802-16.924-37.802-37.813V41.345
	c0-20.884,16.925-37.808,37.802-37.808h311.919c20.875,0,37.813,16.924,37.813,37.808V353.25z"/>
<path fill="#82271A" d="M394.065,41.345c0-20.884-16.938-37.808-37.813-37.808H44.333c-20.876,0-37.802,16.924-37.802,37.808V353.25
	c0,20.89,16.925,37.813,37.802,37.813h230.125l119.607-119.607V41.345z"/>
<path fill="#E2A127" d="M242.793,300.519l24.963,3.871c4.18,0.634,8.442-0.351,11.854-2.737c3.387-2.333,5.733-5.948,6.353-9.952
	l3.749-23.858c0.756-4.787,3.885-8.859,8.415-11.044l22.575-10.789c3.805-1.848,6.676-5.018,7.958-8.848
	c1.335-3.883,0.916-8.051-0.998-11.65l-11.625-21.515c-2.293-4.2-2.293-9.326,0-13.564l11.625-21.482
	c1.914-3.609,2.319-7.772,0.998-11.655c-1.308-3.864-4.167-7.007-7.958-8.852l-22.575-10.788c-4.53-2.185-7.659-6.256-8.415-11.056
	l-3.749-23.839c-0.619-4.016-2.966-7.604-6.353-9.937c-3.411-2.421-7.674-3.398-11.854-2.736l-24.963,3.988
	c-4.937,0.786-9.966-0.782-13.512-4.201l-17.735-17.239c-2.993-2.866-7.014-4.478-11.273-4.478c-4.195,0-8.309,1.631-11.274,4.478
	l-17.735,17.239c-3.52,3.435-8.563,4.986-13.513,4.201l-24.923-3.925c-4.181-0.657-8.441,0.32-11.88,2.738
	c-3.386,2.332-5.718,5.92-6.353,9.931l-3.722,23.841c-0.782,4.801-3.884,8.876-8.402,11.061l-22.603,10.785
	c-3.748,1.848-6.662,4.987-7.943,8.852c-1.308,3.883-0.931,8.044,0.984,11.659l11.625,21.478c2.306,4.222,2.306,9.34,0,13.567
	L72.91,225.564c-1.915,3.613-2.292,7.769-0.984,11.651c1.308,3.844,4.167,7.014,7.943,8.846l22.603,10.791
	c4.519,2.185,7.62,6.256,8.402,11.057l3.722,23.844c0.634,3.991,2.967,7.593,6.353,9.954c3.425,2.398,7.673,3.384,11.88,2.736
	l24.923-3.925c4.95-0.821,9.993,0.758,13.513,4.196l17.735,17.18c2.993,2.926,7.052,4.545,11.274,4.545
	c4.232,0,8.293-1.619,11.273-4.545l17.735-17.18C232.827,301.276,237.871,299.697,242.793,300.519z"/>
<g>
	<path fill="#82271A" d="M241.175,149.792l-7.242,13.012c-9.871-5.458-22.643-9.026-34.456-9.026
		c-14.215,0-25.057,4.407-25.057,14.683c0,24.551,70.854,11.963,70.854,51.627c0,21.822-22.185,31.465-46.512,31.465
		c-18.085,0-36.643-5.451-48.685-15.522l7.228-12.381c10.844,8.819,27.228,14.066,42.172,14.066c14.942,0,26.998-4.829,27.24-15.752
		c0.716-26.645-70.382-13.001-70.14-52.239c0-21.192,20.97-30.006,44.099-30.006C215.861,139.718,230.576,143.496,241.175,149.792z"
		/>
</g>
<polygon fill="#B8433A" points="274.458,391.063 274.458,271.456 394.065,271.456 "/>
<polygon fill="#B3B3B3" points="274.458,271.456 274.458,391.063 154.851,391.063 "/>
</svg>
