<?xml version="1.0" encoding="utf-8"?>
<!-- Generator: Adobe Illustrator 16.0.0, SVG Export Plug-In . SVG Version: 6.00 Build 0)  -->
<!DOCTYPE svg PUBLIC "-//W3C//DTD SVG 1.1//EN" "http://www.w3.org/Graphics/SVG/1.1/DTD/svg11.dtd">
<svg version="1.1" id="Layer_1" xmlns="http://www.w3.org/2000/svg" xmlns:xlink="http://www.w3.org/1999/xlink" x="0px" y="0px"
	 width="400px" height="400px" viewBox="0 0 400 400" enable-background="new 0 0 400 400" xml:space="preserve">
<path fill="#B3B3B3" d="M394.11,50.027c0-20.883-16.938-37.809-37.815-37.809H44.375c-20.877,0-37.802,16.925-37.802,37.809v311.91
	c0,20.891,16.925,37.815,37.802,37.815h229.802L394.11,279.819V50.027z"/>
<path fill="#BDC3C5" d="M394.11,37.815c0-20.884-16.938-37.809-37.815-37.809H44.375c-20.877,0-37.802,16.925-37.802,37.809v311.916
	c0,20.877,16.925,37.803,37.802,37.803h233.646l116.09-116.076V37.815z"/>
<path fill="none" d="M394.11,353.252c0,20.89-16.938,37.815-37.815,37.815H44.375c-20.877,0-37.802-16.926-37.802-37.815V41.342
	c0-20.883,16.925-37.809,37.802-37.809h311.92c20.877,0,37.815,16.925,37.815,37.809V353.252z"/>
<path fill="#727777" d="M394.11,41.342c0-20.883-16.938-37.809-37.815-37.809H44.375c-20.877,0-37.802,16.925-37.802,37.809v311.91
	c0,20.89,16.925,37.815,37.802,37.815h230.126L394.11,271.458V41.342z"/>
<path fill="#D4D6D7" d="M242.835,300.521l24.963,3.87c4.181,0.635,8.442-0.351,11.854-2.737c3.385-2.333,5.731-5.947,6.353-9.953
	l3.749-23.856c0.755-4.788,3.884-8.861,8.415-11.046l22.576-10.789c3.803-1.848,6.676-5.017,7.957-8.847
	c1.335-3.884,0.917-8.051-0.998-11.652l-11.625-21.514c-2.293-4.201-2.293-9.326,0-13.564l11.625-21.483
	c1.915-3.607,2.319-7.771,0.998-11.656c-1.309-3.864-4.167-7.006-7.957-8.85l-22.576-10.789c-4.531-2.185-7.66-6.257-8.415-11.055
	l-3.749-23.84c-0.621-4.016-2.968-7.603-6.353-9.936c-3.412-2.421-7.674-3.398-11.854-2.738l-24.963,3.989
	c-4.936,0.785-9.966-0.782-13.513-4.201l-17.734-17.239c-2.994-2.866-7.017-4.478-11.278-4.478c-4.188,0-8.301,1.632-11.274,4.478
	l-17.728,17.239c-3.527,3.436-8.571,4.986-13.52,4.201l-24.923-3.925c-4.174-0.657-8.436,0.32-11.875,2.738
	c-3.392,2.333-5.725,5.92-6.352,9.933l-3.722,23.84c-0.782,4.801-3.891,8.877-8.409,11.062l-22.596,10.786
	c-3.756,1.848-6.662,4.987-7.943,8.851c-1.315,3.884-0.938,8.044,0.978,11.659l11.625,21.48c2.313,4.221,2.313,9.339,0,13.567
	l-11.625,21.5c-1.915,3.615-2.292,7.769-0.978,11.652c1.308,3.844,4.161,7.013,7.943,8.848l22.596,10.788
	c4.518,2.186,7.626,6.258,8.409,11.06l3.722,23.844c0.627,3.991,2.96,7.593,6.352,9.952c3.419,2.4,7.674,3.386,11.875,2.738
	l24.923-3.925c4.949-0.822,9.993,0.755,13.52,4.194l17.728,17.182c3,2.926,7.06,4.545,11.274,4.545
	c4.241,0,8.298-1.619,11.278-4.545l17.734-17.182C232.869,301.275,237.912,299.698,242.835,300.521z"/>
<g>
	<path fill="#727777" d="M241.217,149.792l-7.242,13.011c-9.872-5.458-22.644-9.025-34.454-9.025
		c-14.221,0-25.064,4.406-25.064,14.683c0,24.552,70.86,11.962,70.86,51.629c0,21.82-22.185,31.463-46.517,31.463
		c-18.079,0-36.636-5.448-48.686-15.522l7.235-12.381c10.843,8.82,27.229,14.066,42.171,14.066c14.939,0,26.996-4.828,27.239-15.752
		c0.715-26.645-70.382-13.001-70.139-52.239c0-21.193,20.971-30.007,44.1-30.007C215.903,139.717,230.616,143.493,241.217,149.792z"
		/>
</g>
<polygon fill="#A8ABAC" points="274.501,391.067 274.501,271.458 394.11,271.458 "/>
<polygon fill="#B3B3B3" points="274.501,271.458 274.501,391.067 154.888,391.067 "/>
</svg>
